<svg width="469" height="401" viewBox="0 0 469 401" fill="none" xmlns="http://www.w3.org/2000/svg">
<g clip-path="url(#clip0_13_93)">
<path d="M329.79 254.528C329.555 232.588 329.32 210.647 329.085 188.707C329.147 188.165 329.374 186.794 330.452 185.495C331.583 184.133 332.975 183.664 333.495 183.516C343.199 178.324 352.901 173.132 362.605 167.94C364.823 166.73 365.357 164.174 364.369 162.793C363.676 161.824 362.212 161.402 360.752 161.737C351.353 166.842 341.954 171.944 332.555 177.049C332.142 177.381 331.145 178.092 329.673 178.281C327.959 178.5 326.656 177.878 326.203 177.635C318.151 167.423 310.099 157.21 302.048 146.998C301.705 146.119 301.227 144.537 301.386 142.554C301.625 139.58 303.147 137.572 303.768 136.834C311.737 124.602 319.704 112.371 327.673 100.139C328.356 98.9653 328.198 97.5026 327.32 96.5756C326.316 95.5128 324.568 95.3646 323.306 96.3114C314.98 108.968 306.655 121.625 298.328 134.281C298 135.049 296.614 138.051 293.271 139.428C291.74 140.059 290.339 140.127 289.434 140.089C275.143 136.819 260.853 133.548 246.563 130.277C245.122 129.887 243.352 129.535 241.314 129.397C238.411 129.2 235.932 129.504 234.08 129.88C196.391 133.985 168.816 136.952 167.305 137.067C166.791 137.105 166.247 137.045 165.775 136.745C165.182 136.366 164.878 135.718 164.718 135.102C163.963 132.726 163.208 130.351 162.453 127.975C162.425 127.868 162.272 127.268 162.63 126.683C162.63 126.683 162.887 126.254 163.453 126.008C164.852 125.401 256.697 88.3114 261.514 86.366C261.722 86.2821 262.757 85.7167 264.249 85.5081C265.247 85.3686 266.126 85.4266 266.807 85.5303C284.11 86.3512 301.414 87.1733 318.718 87.9941C318.926 87.9003 320.245 87.2831 320.658 85.8377C321.049 84.4749 320.474 82.9332 319.203 82.0099C303.766 81.2618 288.33 80.5138 272.892 79.7658C272.181 79.5189 270.343 78.7746 268.923 76.8625C267.693 75.206 267.414 73.5297 267.335 72.7705C271.389 59.1911 274.394 49.2926 275.054 47.0756C275.158 46.7251 275.444 45.7721 276.244 44.876C277.219 43.786 278.427 43.4009 278.891 43.2478C281.127 42.5134 288.977 39.7632 299.752 36.0761C300.699 35.9242 302.78 35.7181 305.177 36.6044C307.605 37.5018 309.061 39.0386 309.676 39.7718C314.484 50.4628 319.291 61.155 324.098 71.846C324.21 71.9706 325.373 73.2285 327.141 73.0334C328.435 72.8903 329.556 72.0237 330.051 70.7893C325.597 60.9772 321.142 51.1664 316.687 41.3543C316.606 41.1938 315.485 38.8904 316.82 36.6019C318.185 34.264 320.83 34.143 320.987 34.1381C331.584 35.2132 342.183 36.2896 352.78 37.3647C353.15 37.4499 355.366 37.998 356.602 40.1804C357.59 41.9233 357.338 43.6231 357.249 44.1106L339.313 71.8003C339.276 72.0003 339.017 73.5087 340.019 74.6159C341.013 75.7145 342.837 75.9626 344.37 75.085C350.742 65.1507 357.112 55.2176 363.483 45.2833C363.811 44.9871 365.083 43.907 367.011 43.8749C368.507 43.8502 369.591 44.4698 370.011 44.7402C383.419 57.1186 396.826 69.4957 410.235 81.8741C411.084 82.9455 411.136 84.4502 410.367 85.5698C409.584 86.7104 408.119 87.1992 406.795 86.7573C388.281 85.7994 369.766 84.8415 351.252 83.8824C348.377 83.5825 346.389 85.5229 346.459 87.0215C346.517 88.2472 347.975 89.5877 350.017 89.8667C371.237 91.0307 392.456 92.1935 413.676 93.3575C414.212 93.2946 416.566 93.0761 418.703 94.6771C420.263 95.8461 420.874 97.3594 421.085 97.9766C425.575 123.5 430.063 149.023 434.552 174.548C435.087 175.896 434.798 177.425 433.817 178.448C432.743 179.569 431.033 179.883 429.583 179.211C411.47 173.208 393.358 167.204 375.245 161.202C374.892 161.047 374.334 160.855 373.635 160.835C373.335 160.826 371.55 160.808 370.775 161.877C370.02 162.919 370.339 164.841 371.833 166.248C401.565 175.695 423.236 182.717 428.759 184.434C429.829 184.767 432.773 185.671 433.993 188.189C435.033 190.337 434.332 192.652 434.11 193.41C432.684 198.301 427.414 220.211 419.761 252.06C419.74 253.907 419.956 257.319 421.834 260.947C422.548 262.326 425.56 268.141 432.288 269.922C432.697 270.031 440.388 271.949 446.578 266.755C449.788 264.061 451.047 260.755 451.518 259.231C463.002 208.924 467.291 191.407 468.201 189.068C468.317 188.768 468.887 187.408 468.984 185.52C469.116 182.948 468.287 181.017 468.166 180.699C467.206 178.19 462.526 151.471 450.901 78.9276C450.943 78.0882 450.907 76.5243 450.136 74.7924C449.562 73.5 448.795 72.6039 448.254 72.0645C425.275 51.1948 402.296 30.3251 379.317 9.45537C378.847 9.07025 378.187 8.61106 377.332 8.22346C376.259 7.73711 375.286 7.55072 374.598 7.47543L311.574 0.529559C310.644 0.255526 309.308 -0.0246785 307.693 0.00124352C305.66 0.0345718 304.045 0.541903 303.04 0.94678C277.045 9.01964 258.166 15.3607 254.459 17.0283C253.663 17.3863 251.629 18.296 249.827 20.3278C248.543 21.7757 247.867 23.2274 247.445 24.2877C242.243 37.3759 239.241 53.0402 239.241 53.0402C239.051 54.0166 238.626 56.2187 237.021 58.4295C235.418 60.6378 233.335 61.8907 231.787 62.6091C199.384 75.838 166.982 89.0668 134.579 102.294C131.946 103.583 127.114 106.464 125.185 111.798C123.435 116.636 124.84 121.205 125.847 123.942C130.479 136.525 135.109 149.108 139.741 161.692C140.581 163.267 142.797 166.908 147.283 169.479C152.335 172.376 157.188 172.151 158.926 171.988C183.757 168.952 208.589 165.916 233.42 162.88C234.696 162.64 236.261 162.446 238.052 162.441C239.846 162.435 241.418 162.619 242.697 162.852C253.674 165.326 264.652 167.799 275.629 170.273C276.536 170.6 277.641 171.095 278.804 171.857C280.74 173.125 281.897 174.533 282.509 175.288C284.442 177.674 289.182 183.691 295.352 191.885C295.668 192.25 296.075 192.807 296.388 193.562C296.812 194.587 296.868 195.503 296.858 196.056C296.898 216.016 296.936 235.977 296.976 255.937C297.339 257.625 298.451 261.658 302.033 265.118C303.077 266.128 307.324 270.195 313.677 270.046C321.196 269.869 325.56 264.017 326.379 262.918C328.804 259.665 329.533 256.337 329.789 254.53L329.79 254.528Z" fill="url(#paint0_linear_13_93)"/>
<path d="M335.877 99.3047C344.477 118.18 353.078 137.055 361.678 155.93C361.831 156.474 362.17 157.947 361.575 159.655C361.095 161.032 360.244 161.885 359.811 162.266C360.523 164.273 361.235 166.28 361.948 168.288C362.279 168.12 362.621 167.938 362.971 167.736C363.482 167.444 363.954 167.146 364.387 166.853C364.387 166.853 364.659 166.706 365.015 166.549C365.771 166.216 366.852 165.752 368.308 165.669C369.737 165.589 370.957 165.908 371.851 166.266C373.238 166.702 374.625 167.139 376.011 167.575C376.668 165.764 377.324 163.952 377.981 162.141C376.048 161.457 374.447 160.876 373.144 160.44C372.433 160.202 371.3 159.809 370.116 158.843C370.022 158.766 369.938 158.691 369.857 158.614C369.356 158.138 368.402 157.07 367.939 155.161C359.495 136.214 351.051 117.269 342.608 98.3222C342.445 97.6235 341.955 95.1387 343.373 92.881C343.498 92.6811 344.942 90.4456 347.607 89.8741C348.484 89.6865 349.037 89.7766 350.475 89.9111C351.906 90.0457 353.954 90.2 356.494 90.2629C356.568 88.2249 356.642 86.1857 356.715 84.1478C354.755 84.0651 352.795 83.9811 350.835 83.8984C350.321 83.8947 349.608 83.8478 348.784 83.6565C347.935 83.459 346.161 83.0788 345.02 81.779C343.468 80.0114 343.726 77.4648 343.903 76.3823C345.432 73.7938 346.96 71.2053 348.49 68.6168C346.66 67.8033 344.83 66.9886 342.998 66.1752C341.771 67.9786 340.543 69.7833 339.316 71.5867C339.099 71.8533 337.625 73.6111 335.141 73.6839C332.14 73.7728 330.429 71.3238 330.319 71.1609C329.507 69.4586 328.694 67.7564 327.882 66.053C326.029 66.6677 324.175 67.2824 322.321 67.8971C322.924 69.2315 323.526 70.5659 324.129 71.9015C325.237 74.6418 324.807 77.6722 322.997 79.6966C321.297 81.5975 319.01 81.9049 318.358 81.9703C316.875 81.8975 315.393 81.8234 313.911 81.7506C313.381 82.806 312.853 83.8626 312.323 84.918C312.651 85.871 312.98 86.8252 313.308 87.7781C315.136 87.9003 316.963 88.0225 318.792 88.1447C319.304 88.3323 321.391 89.1618 322.615 91.459C323.737 93.5661 323.419 95.5633 323.305 96.1373C322.153 97.9506 321.002 99.7652 319.85 101.578L324.643 104.703C325.868 103.035 327.093 101.369 328.318 99.7022C328.617 99.3949 329.873 98.1778 331.905 98.0309C334.08 97.8729 335.569 99.0542 335.875 99.3072L335.877 99.3047Z" fill="url(#paint1_linear_13_93)"/>
<path d="M40.2736 237.576C40.2736 248.577 33.2241 254.775 22.4056 254.775H13.8205V266.682C13.8205 268.841 13.1226 269.606 10.8891 269.606H3.00069C0.767187 269.606 0 268.84 0 266.682V223.095C0 220.936 0.767187 220.17 3.00069 220.17H22.2657C33.1548 220.17 40.2736 226.506 40.2736 237.578V237.576ZM25.9656 237.507C25.9656 234.444 24.0117 232.355 20.7301 232.355H13.8205V242.59H20.7301C24.0105 242.59 25.9656 240.571 25.9656 237.507Z" fill="#2464A4"/>
<path d="M82.9898 269.605H75.4516C71.8223 269.605 70.7755 268.838 70.2162 266.681L68.6113 261.668H53.5348L51.9299 266.681C51.232 268.84 50.325 269.605 46.8343 269.605H39.5052C37.341 269.605 36.9227 268.63 37.6206 266.75L53.6746 222.606C54.3725 220.586 55.2795 220.169 57.3039 220.169H65.2604C67.2848 220.169 68.1918 220.657 68.8897 222.466L85.013 266.75C85.7109 268.63 85.0823 269.605 82.9886 269.605H82.9898ZM61.3527 232.841H60.6548C60.6548 232.841 60.7241 237.854 59.3283 242.52L56.7459 250.736H65.4708L62.8883 242.589C61.4925 237.854 61.3527 232.841 61.3527 232.841Z" fill="#2464A4"/>
<path d="M129.054 236.949C129.054 243.773 126.263 248.646 121.516 251.293C122.214 252.198 122.843 253.173 123.401 254.286L129.683 266.193C130.661 268.073 130.172 269.605 127.868 269.605H120.33C116.63 269.605 115.025 268.7 113.909 266.262L109.442 256.723C108.255 254.355 107.068 253.172 104.206 253.172H102.601V266.679C102.601 268.838 101.903 269.604 99.67 269.604H91.7828C89.5493 269.604 88.7821 268.837 88.7821 266.679V223.092C88.7821 220.933 89.5493 220.168 91.7828 220.168H111.675C122.214 220.168 129.054 226.156 129.054 236.948V236.949ZM110.14 232.354H102.601V241.545H110.14C113.071 241.545 114.746 239.734 114.746 236.88C114.746 234.026 113.142 232.354 110.14 232.354Z" fill="#2464A4"/>
<path d="M176.936 271.345L171.771 275.384C170.166 276.777 169.048 276.708 167.653 275.036L163.116 269.675C160.814 270.302 158.161 270.65 155.229 270.65C141.409 270.65 133.732 263.2 133.732 251.155V238.622C133.732 226.577 141.41 219.126 155.229 219.126C169.048 219.126 176.657 226.577 176.657 238.622V251.155C176.657 255.75 175.61 259.579 173.446 262.643L177.285 267.169C178.68 268.841 178.611 269.815 176.936 271.347V271.345ZM155.228 258.465C160.044 258.465 162.835 256.166 162.835 251.78V237.994C162.835 233.607 160.044 231.309 155.228 231.309C150.412 231.309 147.55 233.607 147.55 237.994V251.78C147.55 256.167 150.341 258.465 155.228 258.465Z" fill="#2464A4"/>
<path d="M204.085 258.465C208.901 258.465 211.344 256.166 211.344 252.058V223.093C211.344 220.934 212.042 220.169 214.275 220.169H222.163C224.396 220.169 225.164 220.936 225.164 223.093V251.432C225.164 263.129 217.906 270.649 204.085 270.649C190.265 270.649 183.076 263.129 183.076 251.432V223.093C183.076 220.934 183.773 220.169 186.007 220.169H193.894C196.128 220.169 196.895 220.936 196.895 223.093V252.058C196.895 256.166 199.268 258.465 204.084 258.465H204.085Z" fill="#2464A4"/>
<path d="M266.972 223.093V229.36C266.972 231.588 266.205 232.354 263.972 232.354H245.544V238.55H260.272C262.505 238.55 263.273 239.317 263.273 241.475V247.742C263.273 249.97 262.504 250.735 260.272 250.735H245.544V257.419H264.599C266.763 257.419 267.531 258.115 267.531 260.343V266.679C267.531 268.838 266.762 269.604 264.599 269.604H234.726C232.492 269.604 231.724 268.837 231.724 266.679V223.092C231.724 220.933 232.491 220.168 234.726 220.168H263.972C266.205 220.168 266.972 220.934 266.972 223.092V223.093Z" fill="#2464A4"/>
<path d="M40.6535 295.954V302.221C40.6535 304.449 39.885 305.216 37.6515 305.216H27.3217V339.543C27.3217 341.701 26.5533 342.467 24.3198 342.467H16.4326C14.1991 342.467 13.5012 341.7 13.5012 339.543V305.216H3.10214C0.868639 305.216 0.170746 304.449 0.170746 302.221V295.954C0.170746 293.795 0.868639 293.03 3.10214 293.03H37.6515C39.885 293.03 40.6535 293.796 40.6535 295.954Z" fill="#2464A4"/>
<path d="M80.1587 295.954V302.221C80.1587 304.449 79.3915 305.216 77.158 305.216H58.7306V311.412H73.4582C75.6917 311.412 76.4601 312.179 76.4601 314.336V320.603C76.4601 322.831 75.6917 323.597 73.4582 323.597H58.7306V330.281H77.7853C79.9495 330.281 80.7167 330.977 80.7167 333.205V339.541C80.7167 341.7 79.9495 342.466 77.7853 342.466H47.9121C45.6786 342.466 44.9114 341.699 44.9114 339.541V295.954C44.9114 293.795 45.6786 293.03 47.9121 293.03H77.158C79.3915 293.03 80.1587 293.796 80.1587 295.954Z" fill="#2464A4"/>
<path d="M105.843 291.984C116.593 291.984 123.293 296.371 126.225 304.169C126.922 306.188 126.434 307.233 124.34 307.929L116.871 310.575C114.707 311.202 113.87 310.854 113.102 308.695C111.846 305.562 109.751 304.17 105.843 304.17C100.33 304.17 98.1653 306.538 98.1653 311.411V324.083C98.1653 328.956 100.33 331.324 105.843 331.324C109.752 331.324 111.986 329.792 113.102 326.797C113.94 324.639 114.777 324.152 116.871 324.917L124.34 327.564C126.434 328.26 126.922 329.304 126.225 331.324C123.293 339.123 116.593 343.509 105.843 343.509C92.0934 343.509 84.346 336.058 84.346 324.013V311.48C84.346 299.435 92.0934 291.984 105.843 291.984Z" fill="#2464A4"/>
<path d="M172.848 295.954V339.541C172.848 341.7 172.081 342.466 169.917 342.466H162.03C160.564 342.466 159.796 342.048 159.168 341.073L148.419 324.571C145.347 319.766 144.161 316.494 142.276 310.227H141.718C143.184 316.911 144.021 320.463 144.021 328.191V339.54C144.021 341.699 143.252 342.464 141.019 342.464H133.969C131.736 342.464 130.969 341.698 130.969 339.54V295.953C130.969 293.794 131.736 293.029 133.969 293.029H142.206C143.81 293.029 144.508 293.446 145.137 294.421L156.584 312.245C159.655 317.05 160.213 319.696 162.447 324.987H163.005C160.771 317.815 159.864 314.473 159.864 307.371V295.952C159.864 293.793 160.562 293.027 162.796 293.027H169.916C172.08 293.027 172.847 293.794 172.847 295.952L172.848 295.954Z" fill="#2464A4"/>
<path d="M200.138 291.984C213.888 291.984 221.566 299.435 221.566 311.48V324.013C221.566 336.058 213.888 343.509 200.138 343.509C186.388 343.509 178.641 336.058 178.641 324.013V311.48C178.641 299.435 186.319 291.984 200.138 291.984ZM200.138 304.169C195.252 304.169 192.46 306.466 192.46 310.853V324.64C192.46 329.027 195.252 331.324 200.138 331.324C205.025 331.324 207.746 329.026 207.746 324.64V310.853C207.746 306.466 204.954 304.169 200.138 304.169Z" fill="#2464A4"/>
<path d="M241.248 295.954V330.281H258.069C260.234 330.281 261.001 330.977 261.001 333.205V339.541C261.001 341.7 260.232 342.466 258.069 342.466H230.43C228.196 342.466 227.429 341.699 227.429 339.541V295.954C227.429 293.795 228.196 293.03 230.43 293.03H238.317C240.55 293.03 241.248 293.796 241.248 295.954Z" fill="#2464A4"/>
<path d="M284.802 291.984C298.552 291.984 306.23 299.435 306.23 311.48V324.013C306.23 336.058 298.552 343.509 284.802 343.509C271.052 343.509 263.305 336.058 263.305 324.013V311.48C263.305 299.435 270.983 291.984 284.802 291.984ZM290.107 278.337L293.667 282.376C294.923 283.768 294.993 284.535 293.249 285.161L280.615 289.06C278.939 289.548 278.102 289.687 277.404 288.712L275.45 286.413C274.403 285.09 274.472 284.464 275.659 283.768L285.5 278.128C287.105 277.223 288.711 276.805 290.107 278.337ZM284.802 304.169C279.916 304.169 277.124 306.466 277.124 310.853V324.64C277.124 329.027 279.916 331.324 284.802 331.324C289.689 331.324 292.41 329.026 292.41 324.64V310.853C292.41 306.466 289.618 304.169 284.802 304.169Z" fill="#2464A4"/>
<path d="M353.832 317.051V326.242C353.832 336.059 346.154 343.51 332.404 343.51C318.654 343.51 310.906 336.059 310.906 324.014V311.481C310.906 299.436 318.654 291.985 332.404 291.985C343.153 291.985 349.853 296.372 352.785 304.17C353.483 306.189 352.994 307.234 350.9 307.93L343.431 310.577C341.267 311.273 340.431 310.855 339.662 308.697C338.406 305.564 336.311 304.171 332.404 304.171C326.89 304.171 324.726 306.539 324.726 311.412V324.084C324.726 328.958 326.89 331.325 332.404 331.325C337.08 331.325 339.942 329.585 339.942 326.59V325.198H333.241C331.077 325.198 330.31 324.502 330.31 322.274V317.052C330.31 314.824 331.077 314.057 333.241 314.057H350.9C353.134 314.057 353.832 314.824 353.832 317.052V317.051Z" fill="#2464A4"/>
<path d="M362.136 293.03H370.372C372.466 293.03 373.163 293.726 373.163 295.815V339.681C373.163 341.769 372.466 342.466 370.372 342.466H362.136C360.042 342.466 359.344 341.769 359.344 339.681V295.815C359.344 293.726 360.042 293.03 362.136 293.03Z" fill="#2464A4"/>
<path d="M400.525 291.984C411.274 291.984 417.975 296.371 420.906 304.169C421.604 306.188 421.115 307.233 419.022 307.929L411.553 310.575C409.388 311.202 408.552 310.854 407.783 308.695C406.527 305.562 404.433 304.17 400.525 304.17C395.011 304.17 392.847 306.538 392.847 311.411V324.083C392.847 328.956 395.011 331.324 400.525 331.324C404.434 331.324 406.667 329.792 407.783 326.797C408.621 324.639 409.459 324.152 411.553 324.917L419.022 327.564C421.115 328.26 421.604 329.304 420.906 331.324C417.975 339.123 411.274 343.509 400.525 343.509C386.775 343.509 379.028 336.058 379.028 324.013V311.48C379.028 299.435 386.775 291.984 400.525 291.984Z" fill="#2464A4"/>
<path d="M445.962 291.984C459.712 291.984 467.39 299.435 467.39 311.48V324.013C467.39 336.058 459.712 343.509 445.962 343.509C432.212 343.509 424.465 336.058 424.465 324.013V311.48C424.465 299.435 432.143 291.984 445.962 291.984ZM445.962 304.169C441.076 304.169 438.284 306.466 438.284 310.853V324.64C438.284 329.027 441.076 331.324 445.962 331.324C450.849 331.324 453.57 329.026 453.57 324.64V310.853C453.57 306.466 450.778 304.169 445.962 304.169Z" fill="#2464A4"/>
<path d="M25.7651 378.958C25.7651 385.655 21.4726 389.428 14.8871 389.428H9.66037V396.676C9.66037 397.99 9.23595 398.456 7.87605 398.456H3.0737C1.7138 398.456 1.24606 397.989 1.24606 396.676V370.139C1.24606 368.825 1.7138 368.359 3.0737 368.359H14.8018C21.4305 368.359 25.7651 372.217 25.7651 378.956V378.958ZM17.0538 378.916C17.0538 377.05 15.8635 375.779 13.8663 375.779H9.65914V382.01H13.8663C15.8635 382.01 17.0538 380.781 17.0538 378.916Z" fill="#D73134"/>
<path d="M51.7715 398.457H47.182C44.972 398.457 44.3348 397.99 43.9945 396.677L43.0169 393.624H33.8379L32.8604 396.677C32.4359 397.992 31.8828 398.457 29.7582 398.457H25.2961C23.9783 398.457 23.7234 397.863 24.1491 396.719L33.9221 369.844C34.3465 368.615 34.8996 368.36 36.132 368.36H40.9765C42.2089 368.36 42.7608 368.657 43.1865 369.759L53.0027 396.719C53.4272 397.863 53.0448 398.457 51.7703 398.457H51.7715ZM38.5982 376.075H38.1738C38.1738 376.075 38.2158 379.128 37.367 381.967L35.7942 386.969H41.1064L39.5337 382.009C38.6836 379.127 38.5982 376.074 38.5982 376.074V376.075Z" fill="#D73134"/>
<path d="M74.8886 370.14V373.956C74.8886 375.312 74.4208 375.779 73.0609 375.779H66.7712V396.677C66.7712 397.992 66.3035 398.457 64.9436 398.457H60.1413C58.7814 398.457 58.3569 397.99 58.3569 396.677V375.779H52.0252C50.6653 375.779 50.2408 375.312 50.2408 373.956V370.14C50.2408 368.826 50.6653 368.36 52.0252 368.36H73.0597C74.4196 368.36 74.8873 368.827 74.8873 370.14H74.8886Z" fill="#D73134"/>
<path d="M89.4639 367.723C97.8349 367.723 102.51 372.26 102.51 379.593V387.223C102.51 394.556 97.8349 399.093 89.4639 399.093C81.0929 399.093 76.3759 394.556 76.3759 387.223V379.593C76.3759 372.26 81.0508 367.723 89.4639 367.723ZM89.4639 375.142C86.4892 375.142 84.789 376.541 84.789 379.212V387.606C84.789 390.276 86.4892 391.675 89.4639 391.675C92.4386 391.675 94.0955 390.277 94.0955 387.606V379.212C94.0955 376.542 92.3953 375.142 89.4639 375.142Z" fill="#D73134"/>
<path d="M137.397 376.371C137.397 379.212 136.505 381.119 134.337 382.603V382.772C137.057 383.959 138.629 386.375 138.629 390.063C138.629 395.532 134.167 398.457 128.176 398.457H115.556C114.196 398.457 113.728 397.99 113.728 396.677V370.14C113.728 368.784 114.196 368.317 115.556 368.317H128.006C133.87 368.317 137.397 371.199 137.397 376.371ZM126.264 375.142H122.142V379.806H126.264C127.964 379.806 128.856 379.17 128.856 377.517C128.856 375.864 127.964 375.143 126.264 375.143V375.142ZM127.071 386.63H122.141V391.59H127.071C128.899 391.59 129.791 390.869 129.791 389.089C129.791 387.309 128.899 386.63 127.071 386.63Z" fill="#D73134"/>
<path d="M166.207 378.576C166.207 382.731 164.507 385.697 161.618 387.308C162.042 387.859 162.425 388.452 162.765 389.131L166.59 396.38C167.185 397.524 166.887 398.457 165.485 398.457H160.895C158.643 398.457 157.666 397.907 156.986 396.423L154.266 390.615C153.544 389.173 152.821 388.454 151.079 388.454H150.101V396.677C150.101 397.992 149.677 398.457 148.317 398.457H143.515C142.155 398.457 141.687 397.99 141.687 396.677V370.14C141.687 368.826 142.155 368.36 143.515 368.36H155.625C162.042 368.36 166.206 372.005 166.206 378.576H166.207ZM154.691 375.778H150.101V381.373H154.691C156.475 381.373 157.496 380.271 157.496 378.533C157.496 376.795 156.519 375.778 154.691 375.778Z" fill="#D73134"/>
<path d="M195.485 398.457H190.896C188.686 398.457 188.049 397.99 187.708 396.677L186.731 393.624H177.552L176.574 396.677C176.15 397.992 175.597 398.457 173.472 398.457H169.01C167.692 398.457 167.437 397.863 167.863 396.719L177.636 369.844C178.06 368.615 178.614 368.36 179.846 368.36H184.69C185.923 368.36 186.475 368.657 186.9 369.759L196.717 396.719C197.141 397.863 196.759 398.457 195.484 398.457H195.485ZM182.312 376.075H181.888C181.888 376.075 181.93 379.128 181.081 381.967L179.508 386.969H184.82L183.248 382.009C182.397 379.127 182.312 376.074 182.312 376.074V376.075Z" fill="#D73134"/>
<path d="M224.507 370.14V396.677C224.507 397.992 224.04 398.457 222.723 398.457H217.921C217.029 398.457 216.561 398.203 216.178 397.609L209.634 387.562C207.764 384.637 207.042 382.645 205.894 378.83H205.554C206.446 382.9 206.956 385.062 206.956 389.767V396.677C206.956 397.992 206.488 398.457 205.128 398.457H200.836C199.476 398.457 199.008 397.99 199.008 396.677V370.14C199.008 368.826 199.476 368.36 200.836 368.36H205.85C206.827 368.36 207.252 368.615 207.634 369.208L214.603 380.06C216.473 382.985 216.813 384.596 218.173 387.817H218.513C217.154 383.451 216.602 381.415 216.602 377.092V370.14C216.602 368.826 217.026 368.36 218.386 368.36H222.721C224.038 368.36 224.505 368.827 224.505 370.14H224.507Z" fill="#D73134"/>
<path d="M241.123 367.723C247.668 367.723 251.746 370.395 253.532 375.142C253.956 376.371 253.659 377.007 252.385 377.431L247.837 379.041C246.519 379.423 246.01 379.211 245.543 377.897C244.778 375.99 243.504 375.142 241.124 375.142C237.767 375.142 236.45 376.584 236.45 379.55V387.265C236.45 390.232 237.767 391.673 241.124 391.673C243.504 391.673 244.864 390.741 245.543 388.918C246.053 387.603 246.563 387.307 247.837 387.773L252.385 389.384C253.659 389.808 253.957 390.443 253.532 391.673C251.747 396.42 247.668 399.091 241.123 399.091C232.752 399.091 228.035 394.555 228.035 387.222V379.592C228.035 372.259 232.752 367.722 241.123 367.722V367.723Z" fill="#D73134"/>
<path d="M268.785 367.723C277.156 367.723 281.831 372.26 281.831 379.593V387.223C281.831 394.556 277.156 399.093 268.785 399.093C260.414 399.093 255.697 394.556 255.697 387.223V379.593C255.697 372.26 260.372 367.723 268.785 367.723ZM268.785 375.142C265.811 375.142 264.11 376.541 264.11 379.212V387.606C264.11 390.276 265.811 391.675 268.785 391.675C271.76 391.675 273.417 390.277 273.417 387.606V379.212C273.417 376.542 271.717 375.142 268.785 375.142Z" fill="#D73134"/>
<path d="M297.723 401H292.964C291.732 401 291.477 400.533 291.859 399.516L302.95 369.843C303.418 368.655 303.884 368.359 305.117 368.359H309.876C311.066 368.359 311.321 368.783 310.937 369.843L299.889 399.516C299.421 400.66 298.954 401 297.722 401H297.723Z" fill="#D73134"/>
<path d="M346.166 378.958C346.166 385.655 341.875 389.428 335.288 389.428H330.061V396.676C330.061 397.99 329.637 398.456 328.277 398.456H323.474C322.115 398.456 321.647 397.989 321.647 396.676V370.139C321.647 368.825 322.115 368.359 323.474 368.359H335.203C341.831 368.359 346.166 372.217 346.166 378.956V378.958ZM337.455 378.916C337.455 377.05 336.264 375.779 334.267 375.779H330.06V382.01H334.267C336.264 382.01 337.455 380.781 337.455 378.916Z" fill="#D73134"/>
<path d="M373.658 378.576C373.658 382.731 371.958 385.697 369.069 387.308C369.493 387.859 369.876 388.452 370.216 389.131L374.041 396.38C374.636 397.524 374.338 398.457 372.936 398.457H368.346C366.094 398.457 365.117 397.907 364.437 396.423L361.718 390.615C360.995 389.173 360.272 388.454 358.53 388.454H357.552V396.677C357.552 397.992 357.128 398.457 355.768 398.457H350.966C349.606 398.457 349.138 397.99 349.138 396.677V370.14C349.138 368.826 349.606 368.36 350.966 368.36H363.076C369.493 368.36 373.657 372.005 373.657 378.576H373.658ZM362.143 375.778H357.554V381.373H362.143C363.928 381.373 364.948 380.271 364.948 378.533C364.948 376.795 363.971 375.778 362.143 375.778Z" fill="#D73134"/>
<path d="M389.552 401H384.793C383.56 401 383.305 400.533 383.688 399.516L394.778 369.843C395.246 368.655 395.713 368.359 396.945 368.359H401.704C402.894 368.359 403.149 368.783 402.766 369.843L391.717 399.516C391.249 400.66 390.783 401 389.55 401H389.552Z" fill="#D73134"/>
<path d="M437.143 376.371C437.143 379.212 436.251 381.119 434.083 382.603V382.772C436.803 383.959 438.374 386.375 438.374 390.063C438.374 395.532 433.912 398.457 427.921 398.457H415.301C413.941 398.457 413.473 397.99 413.473 396.677V370.14C413.473 368.784 413.941 368.317 415.301 368.317H427.751C433.615 368.317 437.142 371.199 437.142 376.371H437.143ZM426.01 375.142H421.889V379.806H426.01C427.711 379.806 428.603 379.17 428.603 377.517C428.603 375.864 427.711 375.143 426.01 375.143V375.142ZM426.818 386.63H421.889V391.59H426.818C428.646 391.59 429.538 390.869 429.538 389.089C429.538 387.309 428.646 386.63 426.818 386.63Z" fill="#D73134"/>
<path d="M465.954 378.576C465.954 382.731 464.253 385.697 461.364 387.308C461.788 387.859 462.171 388.452 462.511 389.131L466.336 396.38C466.931 397.524 466.633 398.457 465.231 398.457H460.641C458.389 398.457 457.412 397.907 456.732 396.423L454.013 390.615C453.29 389.173 452.567 388.454 450.825 388.454H449.848V396.677C449.848 397.992 449.423 398.457 448.063 398.457H443.261C441.901 398.457 441.433 397.99 441.433 396.677V370.14C441.433 368.826 441.901 368.36 443.261 368.36H455.371C461.788 368.36 465.952 372.005 465.952 378.576H465.954ZM454.438 375.778H449.849V381.373H454.438C456.223 381.373 457.243 380.271 457.243 378.533C457.243 376.795 456.266 375.778 454.438 375.778Z" fill="#D73134"/>
</g>
<defs>
<linearGradient id="paint0_linear_13_93" x1="237.908" y1="27.1589" x2="408.846" y2="301.386" gradientUnits="userSpaceOnUse">
<stop stop-color="#0E7588"/>
<stop offset="0.24" stop-color="#0E7789"/>
<stop offset="0.37" stop-color="#0E7F8F"/>
<stop offset="0.47" stop-color="#0E8C9A"/>
<stop offset="0.55" stop-color="#0E9FA9"/>
<stop offset="0.59" stop-color="#0FACB3"/>
<stop offset="0.6" stop-color="#0DAAB5"/>
<stop offset="0.64" stop-color="#06A1C1"/>
<stop offset="0.68" stop-color="#049EC5"/>
<stop offset="0.81" stop-color="#19729E"/>
<stop offset="0.93" stop-color="#2B4D7D"/>
<stop offset="1" stop-color="#333F71"/>
</linearGradient>
<linearGradient id="paint1_linear_13_93" x1="323.096" y1="67.4157" x2="384.632" y2="166.136" gradientUnits="userSpaceOnUse">
<stop offset="0.21" stop-color="#0E778A"/>
<stop offset="0.93" stop-color="#0FACB3"/>
</linearGradient>
<clipPath id="clip0_13_93">
<rect width="469" height="401" fill="white"/>
</clipPath>
</defs>
</svg>
